<svg width="181" height="50" viewBox="0 0 181 50" fill="none" xmlns="http://www.w3.org/2000/svg">
<g filter="url(#filter0_d_42078_437)">
<path opacity="0.5" d="M44.0652 2.25671L34.2601 36.9917C34.2102 37.1494 34.0108 37.1967 33.8945 37.0863L27.3301 30.8583L32.2492 13.4514C32.2991 13.2937 32.1495 13.1518 31.9833 13.1991L13.6362 17.8662L7.10498 11.6697C6.98865 11.5593 7.03851 11.3701 7.20469 11.3228L43.7993 2.00444C43.9655 1.97291 44.115 2.11481 44.0652 2.25671Z" fill="#00B37E"/>
<path opacity="0.5" d="M27.3297 30.858L24.8037 39.8452C24.7538 40.0029 24.5544 40.0502 24.4381 39.9398L4.0634 20.6251C3.94707 20.5147 3.99692 20.3255 4.16311 20.2782L13.6358 17.8658L27.3297 30.858Z" fill="#00B37E"/>
<path d="M32.2484 13.4511L27.3292 30.858L13.6353 17.8659L31.9825 13.1988C32.1487 13.1515 32.2982 13.2934 32.2484 13.4511Z" fill="#00B37E"/>
<path d="M67.2741 29.5H63.3139L63.3389 26.5767H67.2741C68.2569 26.5767 69.0856 26.356 69.7602 25.9146C70.4348 25.4648 70.9428 24.811 71.2843 23.9532C71.6341 23.0953 71.809 22.0584 71.809 20.8425V19.9555C71.809 19.0227 71.7091 18.2023 71.5092 17.4944C71.3176 16.7865 71.0303 16.191 70.6472 15.7079C70.2641 15.2249 69.7935 14.8626 69.2355 14.621C68.6775 14.3712 68.0362 14.2462 67.3116 14.2462H63.2389V11.3104H67.3116C68.5276 11.3104 69.6394 11.5186 70.6472 11.9351C71.6633 12.3432 72.5419 12.9303 73.2832 13.6966C74.0244 14.4628 74.5949 15.3789 74.9947 16.445C75.4028 17.5027 75.6068 18.6812 75.6068 19.9805V20.8425C75.6068 22.1334 75.4028 23.3119 74.9947 24.3779C74.5949 25.444 74.0244 26.3601 73.2832 27.1264C72.5503 27.8843 71.6716 28.4714 70.6472 28.8879C69.6311 29.296 68.5067 29.5 67.2741 29.5ZM65.4377 11.3104V29.5H61.6898V11.3104H65.4377ZM85.6136 11.3104V29.5H81.8782V11.3104H85.6136ZM91.2104 11.3104V14.2462H76.3689V11.3104H91.2104ZM100.755 11.3104H103.928L108.6 24.6653L113.273 11.3104H116.446L109.875 29.5H107.326L100.755 11.3104ZM99.0434 11.3104H102.204L102.779 24.328V29.5H99.0434V11.3104ZM114.997 11.3104H118.17V29.5H114.422V24.328L114.997 11.3104ZM120.656 22.8788V22.6164C120.656 21.6253 120.798 20.7134 121.081 19.8805C121.364 19.0393 121.776 18.3106 122.318 17.6943C122.859 17.078 123.525 16.5991 124.316 16.2576C125.108 15.9078 126.015 15.7329 127.04 15.7329C128.064 15.7329 128.976 15.9078 129.776 16.2576C130.575 16.5991 131.246 17.078 131.787 17.6943C132.337 18.3106 132.753 19.0393 133.036 19.8805C133.32 20.7134 133.461 21.6253 133.461 22.6164V22.8788C133.461 23.8616 133.32 24.7735 133.036 25.6147C132.753 26.4476 132.337 27.1763 131.787 27.801C131.246 28.4173 130.579 28.8962 129.788 29.2377C128.997 29.5791 128.089 29.7499 127.065 29.7499C126.04 29.7499 125.128 29.5791 124.329 29.2377C123.538 28.8962 122.867 28.4173 122.318 27.801C121.776 27.1763 121.364 26.4476 121.081 25.6147C120.798 24.7735 120.656 23.8616 120.656 22.8788ZM124.254 22.6164V22.8788C124.254 23.4451 124.304 23.974 124.404 24.4654C124.504 24.9568 124.662 25.3899 124.879 25.7646C125.103 26.1311 125.395 26.4184 125.753 26.6266C126.111 26.8349 126.548 26.939 127.065 26.939C127.565 26.939 127.993 26.8349 128.352 26.6266C128.71 26.4184 128.997 26.1311 129.214 25.7646C129.43 25.3899 129.588 24.9568 129.688 24.4654C129.797 23.974 129.851 23.4451 129.851 22.8788V22.6164C129.851 22.0668 129.797 21.5504 129.688 21.0673C129.588 20.576 129.426 20.1429 129.201 19.7681C128.985 19.385 128.697 19.0851 128.339 18.8686C127.981 18.6521 127.548 18.5438 127.04 18.5438C126.532 18.5438 126.099 18.6521 125.741 18.8686C125.391 19.0851 125.103 19.385 124.879 19.7681C124.662 20.1429 124.504 20.576 124.404 21.0673C124.304 21.5504 124.254 22.0668 124.254 22.6164ZM139.195 18.8686V29.5H135.597V15.9828H138.97L139.195 18.8686ZM138.671 22.2666H137.696C137.696 21.2672 137.825 20.3677 138.084 19.5682C138.342 18.7603 138.704 18.0732 139.17 17.5069C139.637 16.9322 140.191 16.495 140.832 16.1951C141.482 15.887 142.206 15.7329 143.006 15.7329C143.639 15.7329 144.217 15.8245 144.742 16.0077C145.267 16.191 145.717 16.4825 146.091 16.8822C146.475 17.282 146.766 17.8109 146.966 18.4688C147.174 19.1268 147.278 19.9305 147.278 20.8799V29.5H143.655V20.8675C143.655 20.2678 143.572 19.8014 143.405 19.4683C143.239 19.1351 142.993 18.9019 142.668 18.7687C142.352 18.6271 141.96 18.5563 141.494 18.5563C141.011 18.5563 140.59 18.6521 140.232 18.8436C139.882 19.0352 139.591 19.3017 139.358 19.6432C139.133 19.9763 138.962 20.3677 138.846 20.8175C138.729 21.2672 138.671 21.7503 138.671 22.2666ZM156.236 29.7499C155.186 29.7499 154.245 29.5833 153.412 29.2501C152.579 28.9087 151.871 28.4381 151.288 27.8385C150.714 27.2388 150.272 26.5434 149.964 25.7521C149.656 24.9526 149.502 24.1031 149.502 23.2036V22.7039C149.502 21.6795 149.648 20.7425 149.939 19.893C150.231 19.0435 150.647 18.3064 151.188 17.6818C151.738 17.0571 152.404 16.5782 153.187 16.2451C153.97 15.9036 154.853 15.7329 155.836 15.7329C156.794 15.7329 157.643 15.8911 158.384 16.2076C159.126 16.5241 159.746 16.9739 160.246 17.5569C160.754 18.1398 161.137 18.8394 161.395 19.6556C161.653 20.4635 161.782 21.363 161.782 22.3541V23.8532H151.039V21.4546H158.247V21.1798C158.247 20.6801 158.155 20.2345 157.972 19.843C157.797 19.4433 157.531 19.1268 157.173 18.8936C156.814 18.6604 156.356 18.5438 155.798 18.5438C155.324 18.5438 154.916 18.6479 154.574 18.8561C154.233 19.0643 153.954 19.3558 153.737 19.7306C153.529 20.1054 153.371 20.5468 153.262 21.0548C153.162 21.5546 153.112 22.1042 153.112 22.7039V23.2036C153.112 23.745 153.187 24.2447 153.337 24.7028C153.495 25.1608 153.716 25.5564 153.999 25.8896C154.291 26.2227 154.641 26.4809 155.049 26.6641C155.465 26.8474 155.936 26.939 156.46 26.939C157.11 26.939 157.714 26.814 158.272 26.5642C158.838 26.306 159.325 25.9187 159.734 25.4024L161.483 27.3013C161.199 27.7094 160.812 28.1008 160.321 28.4756C159.838 28.8504 159.255 29.1585 158.572 29.4001C157.889 29.6333 157.11 29.7499 156.236 29.7499ZM167.667 27.9759L171.252 15.9828H175.112L169.678 31.5363C169.561 31.8778 169.403 32.2443 169.203 32.6357C169.012 33.0271 168.749 33.3978 168.416 33.7476C168.091 34.1057 167.679 34.3972 167.179 34.6221C166.688 34.8469 166.084 34.9594 165.368 34.9594C165.026 34.9594 164.747 34.9385 164.531 34.8969C164.314 34.8553 164.056 34.797 163.756 34.722V32.086C163.848 32.086 163.944 32.086 164.044 32.086C164.144 32.0943 164.239 32.0985 164.331 32.0985C164.806 32.0985 165.193 32.0444 165.493 31.9361C165.793 31.8278 166.034 31.6613 166.217 31.4364C166.401 31.2198 166.546 30.9367 166.655 30.5869L167.667 27.9759ZM166.167 15.9828L169.103 25.7771L169.615 29.5874L167.167 29.8498L162.307 15.9828H166.167Z" fill="#E1E1E6"/>
</g>
<defs>
<filter id="filter0_d_42078_437" x="0" y="0.5" width="180.066" height="49" filterUnits="userSpaceOnUse" color-interpolation-filters="sRGB">
<feFlood flood-opacity="0" result="BackgroundImageFix"/>
<feColorMatrix in="SourceAlpha" type="matrix" values="0 0 0 0 0 0 0 0 0 0 0 0 0 0 0 0 0 0 127 0" result="hardAlpha"/>
<feOffset dy="4"/>
<feGaussianBlur stdDeviation="2"/>
<feComposite in2="hardAlpha" operator="out"/>
<feColorMatrix type="matrix" values="0 0 0 0 0 0 0 0 0 0 0 0 0 0 0 0 0 0 0.25 0"/>
<feBlend mode="normal" in2="BackgroundImageFix" result="effect1_dropShadow_42078_437"/>
<feBlend mode="normal" in="SourceGraphic" in2="effect1_dropShadow_42078_437" result="shape"/>
</filter>
</defs>
</svg>
